<svg xmlns="http://www.w3.org/2000/svg" viewBox="0 0 286 60" class="coupon-bg">
    <g fill="none" fill-rule="evenodd">
        <g stroke="#017FFF">
            <g>
                <g>
                    <g>
                        <g>
                            <g>
                                <path fill="#E5F2FF"
                                    d="M 278 0.5 c 2.071 0 3.946 0.84 5.303 2.197 c 1.358 1.357 2.197 3.232 2.197 5.303 h 0 v 44 c 0 2.071 -0.84 3.946 -2.197 5.303 c -1.357 1.358 -3.232 2.197 -5.303 2.197 h 0 H 64.973 c -0.116 -1.043 -0.587 -1.978 -1.291 -2.682 c -0.814 -0.814 -1.94 -1.318 -3.182 -1.318 c -1.243 0 -2.368 0.504 -3.182 1.318 c -0.704 0.704 -1.175 1.64 -1.29 2.682 h 0 h -48.028 c -2.071 0 -3.946 -0.84 -5.303 -2.197 c -1.358 -1.357 -2.197 -3.232 -2.197 -5.303 h 0 V 8 c 0 -2.071 0.84 -3.946 2.197 -5.303 c 1.357 -1.358 3.232 -2.197 5.303 -2.197 h 48.027 c 0.116 1.043 0.587 1.978 1.291 2.682 c 0.814 0.814 1.94 1.318 3.182 1.318 c 1.243 0 2.368 -0.504 3.182 -1.318 c 0.704 -0.704 1.175 -1.64 1.29 -2.682 H 64.972 z"
                                    transform="translate(-1024 -2912) translate(80 2252) translate(0 460) translate(464) translate(480) translate(0 200)"></path>
                                <g stroke-dasharray="2 4" stroke-linecap="square">
                                    <path d="M0.5 0L0.5 48"
                                        transform="translate(-1024 -2912) translate(80 2252) translate(0 460) translate(464) translate(480) translate(0 200) translate(60 8)"></path>
                                </g>
                            </g>
                        </g>
                    </g>
                </g>
            </g>
        </g>
    </g>
</svg>